<!--?xml version="1.0" encoding="utf-8"?-->
<!-- Generator: Adobe Illustrator 23.0.1, SVG Export Plug-In . SVG Version: 6.00 Build 0)  -->
<svg version="1.1" id="Layer_1" xmlns="http://www.w3.org/2000/svg" xmlns:xlink="http://www.w3.org/1999/xlink" x="0px" y="0px" viewBox="0 0 1920 1080" style="" xml:space="preserve" class="">
<style type="text/css">
	.st0{opacity:0.25;}
	.st1{fill:#177077;}
	.st2{fill:#C7B299;}
</style>
<g class="st0">
	<path class="st1 zHebsPcs_0" d="M732,336c9.7,0,24,3,35.7,29.2c8.4,18.9,13.3,46.2,13.3,74.8c0,42.5-34.5,77-77,77c-20,0-42.8-10.9-60.9-29.1
		C624.9,469.8,614,447,614,427c0-17.5,15.6-40.3,40.7-59.4C679.9,348.4,710.2,336,732,336 M732,313c-55.2,0-141,58.8-141,114
		s57.8,113,113,113s100-44.8,100-100S787.2,313,732,313L732,313z"></path>
</g>
<g class="st0">
	<path class="st2 zHebsPcs_1" d="M754,336c8.5,0,12.1,2.6,14.3,4.8c3.6,3.6,8.4,11.9,10.9,30.9c2.2,16.6,2,36.1,1.9,54.9c0,4.4-0.1,9-0.1,13.4
		c0,19.8-7.1,36.6-20.5,48.5C747,500.4,727.7,507,706,507c-20,0-38.8-8.3-52.9-23.5c-14-15-22.1-35.6-22.1-56.5
		c0-17.2,16.4-39.8,42.8-59.1C700,348.8,732.2,336,754,336 M754,313c-55.2,0-146,58.8-146,114s42.8,103,98,103c55.2,0,98-34.8,98-90
		S809.2,313,754,313L754,313z"></path>
</g>
<style data-made-with="vivus-instant">.zHebsPcs_0{stroke-dasharray:1233 1235;stroke-dashoffset:1234;animation:zHebsPcs_draw_0 7200ms linear 0ms infinite,zHebsPcs_fade 7200ms linear 0ms infinite;}.zHebsPcs_1{stroke-dasharray:1174 1176;stroke-dashoffset:1175;animation:zHebsPcs_draw_1 7200ms linear 0ms infinite,zHebsPcs_fade 7200ms linear 0ms infinite;}@keyframes zHebsPcs_draw{100%{stroke-dashoffset:0;}}@keyframes zHebsPcs_fade{0%{stroke-opacity:1;}94.44444444444444%{stroke-opacity:1;}100%{stroke-opacity:0;}}@keyframes zHebsPcs_draw_0{11.11111111111111%{stroke-dashoffset: 1234}50%{ stroke-dashoffset: 0;}100%{ stroke-dashoffset: 0;}}@keyframes zHebsPcs_draw_1{13.88888888888889%{stroke-dashoffset: 1175}52.77777777777778%{ stroke-dashoffset: 0;}100%{ stroke-dashoffset: 0;}}</style></svg>
