<?xml version="1.0" encoding="utf-8"?>
<!-- Generator: Adobe Illustrator 23.0.1, SVG Export Plug-In . SVG Version: 6.00 Build 0)  -->
<svg version="1.1" id="Layer_1" xmlns="http://www.w3.org/2000/svg" xmlns:xlink="http://www.w3.org/1999/xlink" x="0px" y="0px"
	 viewBox="0 0 240 258" style="enable-background:new 0 0 240 258;" xml:space="preserve">
<style type="text/css">
	.st0{opacity:0.25;}
	.st1{fill:#177077;}
	.st2{fill:#C7B299;}
</style>
<g class="st0">
	<path class="st1" d="M154,39c9.7,0,24,3,35.7,29.2c8.4,18.9,13.3,46.2,13.3,74.8c0,42.5-34.5,77-77,77c-20,0-42.8-10.9-60.9-29.1
		C46.9,172.8,36,150,36,130c0-17.5,15.6-40.3,40.7-59.4C101.9,51.4,132.2,39,154,39 M154,16C98.8,16,13,74.8,13,130
		s57.8,113,113,113s100-44.8,100-100S209.2,16,154,16L154,16z"/>
</g>
<g class="st0">
	<path class="st2" d="M176,39c8.5,0,12.1,2.6,14.3,4.8c3.6,3.6,8.4,11.9,10.9,30.9c2.2,16.6,2,36.1,1.9,54.9c0,4.4-0.1,9-0.1,13.4
		c0,19.8-7.1,36.6-20.5,48.5C169,203.4,149.7,210,128,210c-20,0-38.8-8.3-52.9-23.5c-14-15-22.1-35.6-22.1-56.5
		c0-17.2,16.4-39.8,42.8-59.1C122,51.8,154.2,39,176,39 M176,16C120.8,16,30,74.8,30,130s42.8,103,98,103c55.2,0,98-34.8,98-90
		S231.2,16,176,16L176,16z"/>
</g>
</svg>
